<?xml version="1.0" encoding="UTF-8"?>
<svg width="167.88" height="67.31" data-name="Layer 2" version="1.1" viewBox="0 0 167.88 67.31" xmlns="http://www.w3.org/2000/svg" xmlns:cc="http://creativecommons.org/ns#" xmlns:dc="http://purl.org/dc/elements/1.1/" xmlns:rdf="http://www.w3.org/1999/02/22-rdf-syntax-ns#">
 <defs>
  <style>.cls-1 { fill: url(#linear-gradient); } .cls-2 { fill: #5a5a5a; } .cls-3 { fill: #9d9d9d; }</style>
  <linearGradient id="linear-gradient" x1="371.65" x2="428.35" y1="259.59" y2="202.88" gradientUnits="userSpaceOnUse">
   <stop stop-color="#8233ff" offset="0"/>
   <stop stop-color="#33c8ee" offset="1"/>
  </linearGradient>
 </defs>
 <g transform="translate(-376.95,-197.59)" data-name="Layer 1">
  <path class="cls-1" d="m382.84 260.18v-28.94c0-9.46 7.7-17.16 17.16-17.16 4.12 0 8.13 1.49 11.21 4.08v4.8c-2.63-3.56-6.79-5.67-11.21-5.67-7.69 0-13.95 6.26-13.95 13.95v28.94zm-5.89-1.95v6.67h3.21v-6.67zm23.05-50.03c-12.19 0-22.31 9.54-23.05 21.72v25.91h3.21v-25.81c0.63-10.44 9.34-18.61 19.84-18.61 4.03 0 7.9 1.21 11.21 3.51v-3.74c-3.44-1.95-7.31-2.97-11.21-2.97zm23.04-3.91v-6.7h-3.21v6.7zm-3.21 2.4v25.78c-0.63 10.44-9.35 18.61-19.84 18.61-4.03 0-7.9-1.21-11.21-3.5v3.74c3.44 1.95 7.32 2.97 11.21 2.97 12.19 0 22.31-9.54 23.05-21.72v-25.88zm-19.84 41.71c9.46 0 17.16-7.7 17.16-17.16v-28.94h-3.21v28.94c0 7.69-6.26 13.95-13.95 13.95-4.42 0-8.58-2.11-11.21-5.67v4.8c3.09 2.58 7.09 4.08 11.21 4.08z" fill="url(#linear-gradient)"/>
  <g transform="translate(86.756 -59.117)">
   <path class="cls-2" d="m353.14 282.88c0 2.83-2.13 4.59-5.53 4.59h-2.17v3.25h-3.52v-12.44h5.69c3.4 0 5.53 1.76 5.53 4.61zm-3.56 0c0-1.16-0.73-1.83-2.19-1.83h-1.96v3.65h1.96c1.46 0 2.19-0.68 2.19-1.81z"/>
   <path class="cls-2" d="m363.75 278.27h3.52v12.44h-3.52z"/>
   <path class="cls-2" d="m390.51 278.27v12.44h-2.9l-5.49-6.63v6.63h-3.45v-12.44h2.9l5.49 6.63v-6.63z"/>
   <path class="cls-2" d="m410.23 288.3h-5.26l-0.98 2.42h-3.59l5.49-12.44h3.47l5.51 12.44h-3.66zm-1.03-2.59-1.6-3.98-1.6 3.98z"/>
   <path class="cls-2" d="m430.21 287.41h-1.92v3.31h-3.52v-12.44h5.69c3.4 0 5.53 1.76 5.53 4.61 0 1.83-0.89 3.18-2.44 3.93l2.68 3.91h-3.77l-2.26-3.31zm0.04-6.36h-1.96v3.65h1.96c1.46 0 2.19-0.68 2.19-1.81s-0.73-1.83-2.19-1.83z"/>
   <path class="cls-2" d="m453.31 286.25v4.46h-3.52v-4.52l-4.75-7.93h3.72l2.95 4.94 2.95-4.94h3.41l-4.76 7.98z"/>
  </g>
  <g transform="matrix(1.5926 0 0 1.5926 -150.29 -237.27)">
   <path class="cls-3" d="m366.09 299.09c0.25 0.15 0.45 0.35 0.58 0.61 0.14 0.26 0.21 0.57 0.21 0.92s-0.07 0.65-0.21 0.92c-0.14 0.26-0.33 0.47-0.58 0.61s-0.54 0.22-0.87 0.22h-1.13c-0.1 0-0.18-0.03-0.25-0.1s-0.11-0.14-0.11-0.23v-2.85c0-0.09 0.04-0.16 0.11-0.22s0.16-0.09 0.25-0.09h1.13c0.33 0 0.62 0.07 0.87 0.22zm-0.33 2.58c0.16-0.1 0.28-0.24 0.36-0.42 0.09-0.18 0.13-0.39 0.13-0.63s-0.04-0.45-0.13-0.63-0.21-0.33-0.36-0.43-0.34-0.15-0.54-0.15h-0.87v2.41h0.87c0.2 0 0.38-0.05 0.54-0.15z"/>
   <path class="cls-3" d="m373.57 301.91c0.06 0.06 0.08 0.13 0.08 0.2s-0.03 0.14-0.08 0.19-0.13 0.08-0.22 0.08h-2.18c-0.11 0-0.19-0.03-0.26-0.1-0.07-0.06-0.1-0.14-0.1-0.23v-2.84c0-0.09 0.03-0.17 0.1-0.23s0.15-0.09 0.26-0.09h2.18c0.1 0 0.17 0.03 0.22 0.08s0.07 0.11 0.07 0.19c0 0.07-0.03 0.13-0.08 0.19s-0.12 0.09-0.21 0.09h-1.91v0.96h1.82c0.09 0 0.16 0.03 0.21 0.08s0.08 0.12 0.08 0.19-0.03 0.13-0.07 0.19c-0.05 0.05-0.12 0.08-0.21 0.08h-1.82v0.91h1.91c0.09 0 0.16 0.03 0.22 0.09z"/>
   <path class="cls-3" d="m377.24 299.16c0-0.08 0.03-0.15 0.1-0.21s0.15-0.09 0.23-0.09c0.07 0 0.13 0.01 0.17 0.04 0.05 0.02 0.08 0.07 0.11 0.13l1.21 2.31 1.18-2.3c0.03-0.06 0.07-0.1 0.12-0.13s0.1-0.05 0.16-0.05c0.08 0 0.16 0.03 0.23 0.08s0.1 0.12 0.1 0.21c0 0.05-0.01 0.1-0.04 0.15l-1.47 2.89c-0.03 0.05-0.07 0.09-0.12 0.12s-0.11 0.05-0.16 0.05c-0.06 0-0.12-0.01-0.17-0.04s-0.09-0.07-0.12-0.14l-1.5-2.91s-0.03-0.08-0.03-0.12z"/>
   <path class="cls-3" d="m387.41 301.91c0.06 0.06 0.08 0.13 0.08 0.2s-0.03 0.14-0.08 0.19-0.13 0.08-0.22 0.08h-2.18c-0.11 0-0.19-0.03-0.26-0.1-0.07-0.06-0.1-0.14-0.1-0.23v-2.84c0-0.09 0.03-0.17 0.1-0.23s0.15-0.09 0.26-0.09h2.18c0.1 0 0.17 0.03 0.22 0.08s0.07 0.11 0.07 0.19c0 0.07-0.03 0.13-0.08 0.19s-0.12 0.09-0.21 0.09h-1.91v0.96h1.82c0.09 0 0.16 0.03 0.21 0.08s0.08 0.12 0.08 0.19-0.03 0.13-0.07 0.19c-0.05 0.05-0.12 0.08-0.21 0.08h-1.82v0.91h1.91c0.09 0 0.16 0.03 0.22 0.09z"/>
   <path class="cls-3" d="m391.52 302.29c-0.05-0.05-0.08-0.12-0.08-0.22v-2.92c0-0.09 0.03-0.16 0.1-0.21 0.06-0.05 0.14-0.07 0.23-0.07s0.16 0.02 0.22 0.07 0.1 0.12 0.1 0.21v2.67h1.8c0.1 0 0.18 0.03 0.24 0.08s0.09 0.12 0.09 0.19c0 0.08-0.03 0.14-0.09 0.19s-0.14 0.08-0.24 0.08h-2.11c-0.11 0-0.2-0.02-0.25-0.07z"/>
   <path class="cls-3" d="m400.84 301.57c-0.15 0.27-0.36 0.48-0.63 0.63s-0.58 0.22-0.94 0.22-0.67-0.07-0.94-0.22-0.48-0.36-0.63-0.63-0.22-0.59-0.22-0.94 0.07-0.67 0.22-0.94 0.36-0.49 0.63-0.64 0.59-0.22 0.94-0.22 0.66 0.07 0.93 0.22 0.48 0.36 0.63 0.63 0.22 0.59 0.22 0.95-0.07 0.67-0.22 0.94zm-0.96 0.14c0.17-0.1 0.31-0.25 0.4-0.44s0.14-0.4 0.14-0.65-0.05-0.46-0.14-0.65c-0.1-0.19-0.23-0.33-0.4-0.44-0.17-0.1-0.37-0.16-0.6-0.16s-0.43 0.05-0.6 0.16c-0.18 0.1-0.31 0.25-0.41 0.44s-0.14 0.41-0.14 0.65 0.05 0.46 0.14 0.65 0.23 0.33 0.41 0.44c0.18 0.1 0.38 0.16 0.6 0.16s0.43-0.05 0.6-0.16z"/>
   <path class="cls-3" d="m405.69 302.09c0 0.09-0.03 0.16-0.1 0.21s-0.14 0.07-0.22 0.07-0.16-0.02-0.22-0.07-0.09-0.12-0.09-0.2v-2.93c0-0.08 0.03-0.15 0.09-0.21 0.06-0.05 0.14-0.08 0.22-0.08h1.12c0.3 0 0.56 0.05 0.77 0.16 0.22 0.11 0.38 0.26 0.5 0.45 0.12 0.2 0.17 0.42 0.17 0.68s-0.06 0.46-0.17 0.65c-0.11 0.18-0.28 0.33-0.5 0.43s-0.48 0.15-0.78 0.15h-0.79zm0-1.23h0.79c0.26 0 0.47-0.06 0.61-0.19 0.15-0.12 0.22-0.29 0.22-0.5 0-0.23-0.07-0.41-0.21-0.54s-0.34-0.2-0.6-0.2h-0.81v1.44z"/>
   <path class="cls-3" d="m412.34 298.92c0.05 0.03 0.09 0.07 0.13 0.12l1.15 1.79 1.14-1.8c0.03-0.05 0.08-0.09 0.13-0.12s0.11-0.04 0.16-0.04c0.08 0 0.16 0.03 0.22 0.08s0.09 0.13 0.09 0.22v2.9c0 0.09-0.03 0.16-0.1 0.21s-0.14 0.07-0.22 0.07-0.16-0.02-0.22-0.07-0.09-0.12-0.09-0.21v-1.85l-0.82 1.28c-0.03 0.05-0.07 0.09-0.12 0.12s-0.11 0.04-0.16 0.04-0.12-0.01-0.17-0.05c-0.06-0.03-0.1-0.07-0.13-0.13l-0.81-1.26v1.84c0 0.09-0.03 0.16-0.1 0.21-0.06 0.05-0.14 0.07-0.22 0.07s-0.16-0.02-0.22-0.07-0.09-0.12-0.09-0.21v-2.9c0-0.09 0.03-0.17 0.09-0.22 0.06-0.06 0.14-0.09 0.22-0.09 0.05 0 0.1 0.01 0.15 0.04z"/>
   <path class="cls-3" d="m422.31 301.91c0.06 0.06 0.08 0.13 0.08 0.2s-0.03 0.14-0.08 0.19-0.13 0.08-0.22 0.08h-2.18c-0.11 0-0.19-0.03-0.26-0.1-0.07-0.06-0.1-0.14-0.1-0.23v-2.84c0-0.09 0.03-0.17 0.1-0.23s0.15-0.09 0.26-0.09h2.18c0.1 0 0.17 0.03 0.22 0.08s0.07 0.11 0.07 0.19c0 0.07-0.03 0.13-0.08 0.19s-0.12 0.09-0.21 0.09h-1.91v0.96h1.82c0.09 0 0.16 0.03 0.21 0.08s0.08 0.12 0.08 0.19-0.03 0.13-0.07 0.19c-0.05 0.05-0.12 0.08-0.21 0.08h-1.82v0.91h1.91c0.09 0 0.16 0.03 0.22 0.09z"/>
   <path class="cls-3" d="m428.77 298.95c0.07-0.05 0.15-0.07 0.23-0.07s0.16 0.02 0.22 0.07c0.06 0.04 0.09 0.11 0.09 0.2v2.9c0 0.1-0.04 0.18-0.11 0.24s-0.16 0.09-0.26 0.09c-0.06 0-0.12-0.01-0.18-0.04s-0.11-0.07-0.15-0.12l-1.68-2.16 0.02 0.31v1.72c0 0.1-0.03 0.17-0.1 0.22-0.06 0.05-0.14 0.07-0.23 0.07s-0.17-0.02-0.23-0.07-0.1-0.12-0.1-0.22v-2.87c0-0.11 0.03-0.19 0.1-0.25s0.14-0.09 0.24-0.09c0.07 0 0.12 0.01 0.18 0.04 0.05 0.03 0.1 0.07 0.14 0.12l1.72 2.24-0.02-0.37v-1.77c0-0.08 0.03-0.15 0.1-0.2z"/>
   <path class="cls-3" d="m436.19 298.96c0.06 0.06 0.09 0.12 0.09 0.2s-0.03 0.14-0.09 0.19c-0.06 0.06-0.14 0.09-0.24 0.09h-1.02v2.64c0 0.09-0.03 0.16-0.1 0.21s-0.14 0.08-0.22 0.08-0.16-0.03-0.22-0.08-0.1-0.12-0.1-0.21v-2.64h-1.01c-0.1 0-0.17-0.03-0.23-0.08-0.05-0.05-0.08-0.12-0.08-0.2s0.03-0.14 0.08-0.2 0.13-0.09 0.23-0.09h2.67c0.1 0 0.18 0.03 0.24 0.09z"/>
  </g>
 </g>
</svg>
